<?xml version="1.0" standalone="no"?>
<!DOCTYPE svg PUBLIC "-//W3C//DTD SVG 20010904//EN"
 "http://www.w3.org/TR/2001/REC-SVG-20010904/DTD/svg10.dtd">
<svg version="1.0" xmlns="http://www.w3.org/2000/svg"
 width="48.000000pt" height="48.000000pt" viewBox="0 0 48.000000 48.000000"
 preserveAspectRatio="xMidYMid meet">

<g transform="translate(0.000000,48.000000) scale(0.100000,-0.100000)"
fill="#DDDDDD" stroke="none">
<path d="M152 461 c-63 -22 -77 -34 -68 -56 5 -14 13 -16 44 -9 20 5 63 9 95
9 52 0 62 -3 83 -28 30 -35 30 -42 1 -71 -18 -18 -39 -24 -96 -30 -78 -7 -140
-33 -165 -68 -24 -34 -21 -119 6 -153 43 -55 121 -69 196 -35 32 14 49 17 62
10 10 -6 39 -10 64 -10 70 0 76 16 76 185 0 126 -2 145 -22 185 -43 84 -155
113 -276 71z m138 -246 c40 -21 49 -59 24 -104 -14 -26 -27 -37 -48 -39 -90
-11 -150 63 -93 116 20 19 60 40 80 41 4 1 21 -6 37 -14z"/>
</g>
</svg>
